# xmcd CD database file
# Copyright (C) 1995-1998 Ti Kan
#
# Track frame offsets:
#	150
#	23755
#	54350
#	72470
#	103967
#	135032
#	144777
#	168555
#	187830
#	207042
#	221242
#	244872
#	263715
#	283347
#
# Disc length: 4159 seconds
#
# Revision: 2
# Processed by: cddbd v1.4b41PL1 Copyright (c) Steve Scherf et al.
# Submitted via: CDex 1.30Release
#
DISCID=cd103d0e
DTITLE=Hot Tuna - Splashdown Two
DYEAR=1997
DGENRE=Blues
TTITLE0=Oh Lord Search My Heart
TTITLE1=Death Don't Have No Mercy
TTITLE2=I am the Light of This World
TTITLE3=Mann's Fate
TTITLE4=Whining Boy Blues
TTITLE5=Embryonic Journey
TTITLE6=99 Year Blues
TTITLE7=Police Dog (Splashdown) Blues
TTITLE8=Sally Where'd You Get Your Liquor From
TTITLE9=Keep Your Lamps Trimmed and Burning
TTITLE10=I Know You Rider
TTITLE11=Babe I Want You To Know
TTITLE12=Keep On Truckin'
TTITLE13=Candyman
EXTD=YEAR: 1997 ID3G:   0
EXTT0=
EXTT1=
EXTT2=
EXTT3=
EXTT4=
EXTT5=
EXTT6=
EXTT7=
EXTT8=
EXTT9=
EXTT10=
EXTT11=
EXTT12=
EXTT13=
PLAYORDER=
